<svg xmlns="http://www.w3.org/2000/svg" width="578" height="200"
     viewBox="0 0 578.25 200" fill="currentColor">
  <path transform="translate(0.00,158.73) scale(0.158730,-0.158730)" d="M68 0V706H225V0ZM189 0V138H538V0Z"/>
  <path transform="translate(87.78,158.73) scale(0.158730,-0.158730)" d="M257 -10Q190 -10 137.5 23.0Q85 56 54.5 113.0Q24 170 24 243Q24 316 54.5 373.0Q85 430 137.5 463.0Q190 496 257 496Q306 496 345.5 477.0Q385 458 410.0 424.5Q435 391 438 348V138Q435 95 410.5 61.5Q386 28 346.0 9.0Q306 -10 257 -10ZM288 128Q337 128 367.0 160.5Q397 193 397 243Q397 277 383.5 303.0Q370 329 345.5 343.5Q321 358 289 358Q257 358 232.5 343.5Q208 329 193.5 303.0Q179 277 179 243Q179 210 193.0 184.0Q207 158 232.0 143.0Q257 128 288 128ZM391 0V131L414 249L391 367V486H541V0Z"/>
  <path transform="translate(180.95,158.73) scale(0.158730,-0.158730)" d="M375 0V277Q375 315 351.5 338.5Q328 362 292 362Q267 362 248.0 351.5Q229 341 218.0 321.5Q207 302 207 277L148 306Q148 363 173.0 406.0Q198 449 242.5 472.5Q287 496 343 496Q397 496 438.5 470.5Q480 445 504.0 403.0Q528 361 528 311V0ZM54 0V486H207V0Z"/>
  <path transform="translate(270.48,158.73) scale(0.158730,-0.158730)" d="M123 0V687H276V0ZM13 356V486H386V356Z"/>
  <path transform="translate(332.54,158.73) scale(0.158730,-0.158730)" d="M294 -11Q215 -11 153.5 21.5Q92 54 57.0 112.0Q22 170 22 243Q22 316 56.5 373.5Q91 431 150.0 464.0Q209 497 283 497Q355 497 410.0 466.0Q465 435 496.5 380.0Q528 325 528 254Q528 241 526.5 226.5Q525 212 521 193L102 192V297L456 298L390 254Q389 296 377.0 323.5Q365 351 341.5 365.5Q318 380 284 380Q248 380 221.5 363.5Q195 347 180.5 317.0Q166 287 166 244Q166 201 181.5 170.5Q197 140 225.5 123.5Q254 107 293 107Q329 107 358.0 119.5Q387 132 409 157L493 73Q457 31 406.0 10.0Q355 -11 294 -11Z"/>
  <path transform="translate(418.25,158.73) scale(0.158730,-0.158730)" d="M54 0V486H207V0ZM207 267 143 317Q162 402 207.0 449.0Q252 496 332 496Q367 496 393.5 485.5Q420 475 440 453L349 338Q339 349 324.0 355.0Q309 361 290 361Q252 361 229.5 337.5Q207 314 207 267Z"/>
  <path transform="translate(487.46,158.73) scale(0.158730,-0.158730)" d="M375 0V277Q375 315 351.5 338.5Q328 362 292 362Q267 362 248.0 351.5Q229 341 218.0 321.5Q207 302 207 277L148 306Q148 363 173.0 406.0Q198 449 242.5 472.5Q287 496 343 496Q397 496 438.5 470.5Q480 445 504.0 403.0Q528 361 528 311V0ZM54 0V486H207V0Z"/>
</svg>
